<?xml version="1.0" encoding="UTF-8"?>
<svg xmlns="http://www.w3.org/2000/svg" width="92" height="93" viewBox="0 0 92 93" fill="none"><mask id="path-1-inside-1_2584_62261" fill="white"><path fill-rule="evenodd" clip-rule="evenodd" d="M46 92.0741C71.405 92.0741 91.9999 71.4626 91.9999 46.0371C91.9999 20.6115 71.405 0 46 0C20.5949 0 0 20.6115 0 46.0371C0 71.4626 20.5949 92.0741 46 92.0741ZM45.9969 84.0645C66.9837 84.0645 83.9969 67.0376 83.9969 46.0339C83.9969 25.0301 66.9837 8.00324 45.9969 8.00324C25.0101 8.00324 7.99692 25.0301 7.99692 46.0339C7.99692 67.0376 25.0101 84.0645 45.9969 84.0645Z"/></mask><path fill-rule="evenodd" clip-rule="evenodd" d="M46 92.0741C71.405 92.0741 91.9999 71.4626 91.9999 46.0371C91.9999 20.6115 71.405 0 46 0C20.5949 0 0 20.6115 0 46.0371C0 71.4626 20.5949 92.0741 46 92.0741ZM45.9969 84.0645C66.9837 84.0645 83.9969 67.0376 83.9969 46.0339C83.9969 25.0301 66.9837 8.00324 45.9969 8.00324C25.0101 8.00324 7.99692 25.0301 7.99692 46.0339C7.99692 67.0376 25.0101 84.0645 45.9969 84.0645Z" fill="#00FFFF"/><path d="M90.4999 46.0371C90.4999 70.6353 70.5755 90.5741 46 90.5741V93.5741C72.2346 93.5741 93.4999 72.2899 93.4999 46.0371H90.4999ZM46 1.5C70.5755 1.5 90.4999 21.4388 90.4999 46.0371H93.4999C93.4999 19.7842 72.2346 -1.5 46 -1.5V1.5ZM1.5 46.0371C1.5 21.4388 21.4245 1.5 46 1.5V-1.5C19.7653 -1.5 -1.5 19.7842 -1.5 46.0371H1.5ZM46 90.5741C21.4245 90.5741 1.5 70.6353 1.5 46.0371H-1.5C-1.5 72.2899 19.7653 93.5741 46 93.5741V90.5741ZM82.4969 46.0339C82.4969 66.2103 66.1541 82.5645 45.9969 82.5645V85.5645C67.8133 85.5645 85.4969 67.8649 85.4969 46.0339H82.4969ZM45.9969 9.50324C66.1541 9.50324 82.4969 25.8574 82.4969 46.0339H85.4969C85.4969 24.2028 67.8133 6.50324 45.9969 6.50324V9.50324ZM9.49692 46.0339C9.49692 25.8574 25.8397 9.50324 45.9969 9.50324V6.50324C24.1805 6.50324 6.49692 24.2028 6.49692 46.0339H9.49692ZM45.9969 82.5645C25.8397 82.5645 9.49692 66.2103 9.49692 46.0339H6.49692C6.49692 67.8649 24.1805 85.5645 45.9969 85.5645V82.5645Z" fill="#151417" mask="url(#path-1-inside-1_2584_62261)"/><g clip-path="url(#clip0_2584_62261)"><g clip-path="url(#clip1_2584_62261)"><path d="M45.5762 36.6132C42.2629 35.1756 37.6242 35.0227 34.612 37.2556C32.6541 38.7237 32.0517 41.3541 32.5638 43.6787C32.9553 45.8809 35.0036 47.5019 36.9615 48.2666C39.6424 49.2454 42.4436 49.9489 45.1546 50.8972C45.4256 51.0194 45.7871 51.2947 45.7268 51.6311C45.7268 51.9065 45.4558 52.0594 45.2449 52.1819C42.4135 52.977 39.3412 52.3653 37.2928 50.163C37.0519 49.8571 36.9013 49.49 36.6602 49.1842L32.5939 49.2149C32.5337 51.6923 32.5035 54.5368 32.5939 56.9837L37.1121 56.9533L37.1724 55.4852C37.6845 55.7298 38.1965 56.0357 38.7086 56.3111C41.8412 57.6567 45.8774 57.9625 48.98 56.3111C51.2392 55.0264 52.444 52.5487 52.1125 49.8879C51.7813 47.2881 49.3716 44.9328 46.9318 44.2905L39.6424 42.1188L39.1001 41.8436C38.8592 41.6294 38.7086 41.3541 38.7687 41.0177C39.3412 40.0084 40.6665 40.3142 41.6605 40.3449C43.7689 40.6507 45.9377 41.3848 47.1727 43.3729C48.4979 43.3729 50.0343 43.4035 51.4801 43.3423C51.5404 40.8341 51.4501 38.632 51.4198 36.0932C50.0643 36.0627 48.4076 36.0627 47.0521 36.1238C46.9919 36.4909 47.1124 37.0108 46.9618 37.3779L45.5762 36.6132ZM71.1193 37.5921C67.2035 35.0227 61.2395 34.8393 57.2031 37.1637C55.0043 38.3261 53.5586 40.6201 53.1068 42.9752C52.2934 46.8597 52.5043 51.4782 55.3959 54.3839C58.7695 57.4425 63.6793 58.1155 68.0469 56.8616C68.254 56.8195 68.9129 56.6474 69.3647 56.3989L69.4926 56.3416C70.8481 55.7603 72.1433 54.8122 73.1072 53.5275C75.3363 50.163 75.487 45.1162 74.1315 41.3235C73.5894 39.8554 72.4748 38.5402 71.1193 37.5921ZM19.9428 35.7569L18.0754 35.7873C18.0452 37.4085 18.0452 39.3048 18.0754 40.9566C19.0995 40.9871 20.0634 40.9566 21.0574 41.0483V51.4477L21.0272 51.876L18.0452 51.937C17.9849 53.65 17.9849 55.3015 18.0452 56.9837H31.3288V51.937C30.3347 51.876 29.2203 51.9677 28.2564 51.8453L28.2865 41.1095L28.3468 41.0177L31.3288 40.9871C31.359 39.2437 31.389 37.3779 31.2987 35.7873L19.9428 35.7569Z" fill="#151417"/><path d="M46.8672 22.4683C46.0645 22.3759 45.0831 22.3451 44.2208 22.4375C43.8936 22.4066 43.5069 22.4374 43.1204 22.4683C35.9834 23.0538 29.4114 26.9057 25.3077 33.4696C25.6051 33.4388 25.9619 33.5619 26.2592 33.4387C26.9731 32.391 27.7759 31.374 28.668 30.388C29.4412 29.6176 30.1548 28.8779 30.9876 28.3233C31.7606 28.8472 32.6231 29.2786 33.3666 29.7717C32.4447 30.9735 31.493 32.1752 30.8091 33.4696C31.0172 33.562 31.4039 33.5311 31.7013 33.4696C32.4447 32.3293 33.2475 31.1891 34.1992 30.1722C35.4778 30.6653 36.7269 31.1891 38.0353 31.5589L38.1542 31.6822L37.4108 33.4696C37.7379 33.5311 37.9461 33.5003 38.2733 33.4696C38.5409 32.9456 38.7489 32.3602 39.0463 31.8363C40.7712 32.2369 42.5852 32.4526 44.4288 32.5142C44.6668 32.7299 44.4884 33.1921 44.5775 33.4696H45.3805C45.4696 33.1614 45.3507 32.8224 45.4696 32.5451C47.1945 32.4526 49.0084 32.2676 50.6738 31.8363L50.8225 31.8671L51.6252 33.4696C51.893 33.4696 52.2498 33.5311 52.4581 33.4079L51.7146 31.6206L51.7739 31.5589C53.142 31.1891 54.4206 30.6345 55.7292 30.0798C56.6509 31.0967 57.5134 32.2985 58.2865 33.4696C58.6135 33.4696 58.9408 33.5002 59.1786 33.4079C58.8217 32.7299 58.3756 32.052 57.9 31.4666C57.5135 30.8809 57.097 30.3571 56.5914 29.8023V29.6483L58.673 28.385L58.9704 28.2616C60.7846 29.71 62.3902 31.4665 63.6689 33.4079C64.0258 33.4079 64.3232 33.5311 64.6205 33.3771C60.6359 27.0907 54.0637 23.0538 46.9566 22.4683L46.9268 22.53L46.8672 22.4683ZM49.9304 23.855V23.9167C47.3432 25.8888 43.1502 26.0738 40.4143 24.2555C40.2656 24.1323 39.9682 24.0708 39.9384 23.855C43.0907 23.0846 46.808 23.0229 49.9304 23.855ZM58.1082 27.6146L58.0486 27.7378L55.9966 28.9396H55.848C54.2719 27.2756 52.4282 25.8272 50.5548 24.6871C50.6143 24.4713 50.9117 24.3172 51.1199 24.1632C53.6177 24.8412 55.967 26.0121 58.1082 27.6146ZM39.3735 24.6871C37.5298 25.8889 35.7158 27.3064 34.0505 29.032C33.2475 28.7238 32.5041 28.2616 31.7904 27.7378V27.6761C33.6639 26.2279 35.7456 25.1493 37.9461 24.4096C38.0353 24.3172 38.0948 24.2249 38.2137 24.2249V24.2864C38.4516 24.3481 38.63 24.0707 38.8382 24.2555C39.0167 24.4096 39.2248 24.533 39.3735 24.6871ZM54.9858 29.3401L54.9262 29.4327C53.7663 29.9564 52.5769 30.4495 51.2982 30.7268C50.3765 29.0937 49.3653 27.4605 48.2353 25.8888C48.6515 25.6422 49.1571 25.4575 49.6031 25.2109C51.536 26.2279 53.4095 27.6761 54.9858 29.3401ZM41.6038 25.8272L41.5146 26.0738C40.3845 27.5529 39.4924 29.1554 38.6003 30.7268L38.4813 30.7577C37.2621 30.4187 36.0726 30.0181 34.9426 29.4942L35.0021 29.3095C36.6377 27.6761 38.3624 26.3203 40.2656 25.2725C40.7117 25.4575 41.1577 25.6116 41.6038 25.8272ZM44.4884 26.4126C44.5775 28.0151 44.5181 29.8641 44.5181 31.5589C43.6854 31.6822 42.942 31.5281 42.1094 31.4666C41.3064 31.3432 40.2954 31.2508 39.4924 30.9735C40.3549 29.2786 41.3659 27.6453 42.5852 26.1353L44.4884 26.4126ZM47.2836 26.1662C48.4435 27.707 49.5735 29.2786 50.3465 30.9735C48.7409 31.374 47.1053 31.5898 45.4399 31.5898C45.3805 29.9565 45.4102 28.1384 45.4399 26.4435C46.0346 26.3511 46.6889 26.2586 47.2836 26.1662ZM38.422 59.4472C38.1246 59.4472 37.7974 59.3855 37.5892 59.4779L38.3326 61.2961L38.2435 61.3885C36.9053 61.7894 35.5969 62.2823 34.3181 62.8369L34.1992 62.7752C33.3666 61.8201 32.5636 60.7722 31.9093 59.7247C31.7606 59.2007 31.1659 59.5089 30.8389 59.4472C31.5526 60.8029 32.5041 62.0048 33.4557 63.2375C32.6528 63.7304 31.8499 64.2853 31.0172 64.6859C29.233 63.2682 27.5678 61.4192 26.3188 59.4779C25.9619 59.4165 25.724 59.4472 25.3671 59.4779C27.5082 62.991 30.8389 66.0726 34.3181 67.8905C34.3181 67.8905 34.3181 67.8598 34.3479 67.8598C34.3776 67.8598 34.437 67.9215 34.3776 67.9525C36.7269 69.1542 39.2248 70.017 41.8714 70.3868C51.0008 71.6504 59.7138 67.5517 64.7692 59.4779C64.5018 59.4472 64.1149 59.4472 63.8176 59.4779C62.5688 61.3579 60.9925 63.1761 59.2678 64.5935C59.2082 64.6859 59.0299 64.6549 58.9704 64.5628C58.227 64.0696 57.424 63.669 56.7105 63.1761C57.6621 61.9741 58.5839 60.7722 59.2977 59.4472H58.3756C57.6322 60.5874 56.8592 61.7894 55.8779 62.806C54.5693 62.2516 53.3798 61.7584 52.0417 61.3885L51.893 61.2651C52.1012 60.6488 52.4877 60.0635 52.6068 59.4472H51.8038L51.0009 61.111C49.2462 60.7108 47.3133 60.4947 45.5292 60.3717C45.4399 60.0942 45.5589 59.6937 45.4399 59.4472H44.6668C44.6073 59.8171 44.7559 60.0942 44.5775 60.4027C42.7339 60.4948 40.9496 60.7108 39.2248 61.0804L38.422 59.4472ZM44.6668 66.5348C44.0423 66.6889 43.3582 66.6889 42.7635 66.843C41.5444 65.3332 40.5332 63.6997 39.6708 62.0048L39.8195 61.8814C41.3659 61.5733 42.9717 61.3272 44.6371 61.3272L44.6668 66.5348ZM50.5252 61.9435L50.5548 62.0355C49.7222 63.6997 48.6814 65.3022 47.5514 66.812C47.0458 66.874 46.5698 66.6579 46.0645 66.6272L45.5589 66.5658C45.4994 64.7476 45.4696 63.1451 45.5589 61.3272C47.254 61.3578 48.9488 61.5426 50.5252 61.9435ZM38.7787 62.2206C39.6411 63.9155 40.7117 65.5179 41.7822 67.1201C41.3659 67.3669 40.8604 67.521 40.444 67.7675C38.4813 66.7506 36.6079 65.3332 35.0318 63.6383V63.5456C36.1917 62.96 37.4108 62.5288 38.6598 62.1896L38.7787 62.2206ZM55.1344 63.5149C54.1828 64.6549 52.9634 65.6413 51.8334 66.4732C51.1495 66.9047 50.4656 67.3669 49.7518 67.7365L48.4732 67.1511L48.5623 66.9354C49.633 65.4253 50.5844 63.8845 51.4173 62.2516L51.5064 62.1896C52.7851 62.4978 54.0042 62.9293 55.1344 63.5149ZM58.3161 65.2712C56.6509 66.6579 54.718 67.5824 52.7555 68.3528L51.3578 68.815C51.1199 68.6919 50.9117 68.5069 50.7035 68.3221L50.763 68.2297C52.666 67.0587 54.391 65.6413 56.0266 63.9465C56.8292 64.2853 57.6026 64.7476 58.3161 65.2712ZM39.4628 68.3221C39.3141 68.5069 39.0761 68.6919 38.868 68.815C36.3699 68.1373 34.0505 66.9661 31.9093 65.3639V65.2712C32.6231 64.809 33.3368 64.316 34.11 63.9772C35.805 65.7334 37.5594 67.0587 39.4628 68.3221ZM50.1087 69.0311C50.1979 69.2159 49.96 69.1542 49.9005 69.2159C46.7484 69.9246 43.2393 69.9555 40.0871 69.1542C40.0277 69.0001 40.2358 68.9691 40.3251 68.877C43.0906 66.997 47.4027 66.997 50.1087 69.0311Z" fill="#151417"/><path d="M67.1285 41.121C67.615 41.8477 67.5827 42.7956 67.68 43.6488C67.6473 45.4498 67.8095 47.5985 67.4851 49.4314C67.323 50.1896 66.8041 50.9796 65.9932 51.264C64.6958 51.8328 62.9441 51.6748 61.7442 51.0113C60.7385 50.3161 60.6089 49.1469 60.479 48.0409C60.3818 45.8605 60.2196 43.5539 60.8357 41.5633C61.3223 40.331 62.6524 40.015 63.8526 39.9201C65.1174 39.9201 66.3499 40.1098 67.1285 41.121Z" fill="white"/></g></g><defs><clipPath id="clip0_2584_62261"><rect width="57" height="57" fill="white" transform="translate(18 18)"/></clipPath><clipPath id="clip1_2584_62261"><rect width="57" height="57" fill="white" transform="translate(18 17.9971)"/></clipPath></defs></svg>