<?xml version="1.0" encoding="UTF-8"?>
<svg xmlns="http://www.w3.org/2000/svg" width="92" height="92" viewBox="0 0 92 92" fill="none"><mask id="path-1-inside-1_2584_62264" fill="white"><path fill-rule="evenodd" clip-rule="evenodd" d="M46 92C71.405 92 91.9999 71.4051 91.9999 46C91.9999 20.5949 71.405 0 46 0C20.5949 0 0 20.5949 0 46C0 71.4051 20.5949 92 46 92ZM45.9969 83.9968C66.9837 83.9968 83.9969 66.9836 83.9969 45.9968C83.9969 25.01 66.9837 7.9968 45.9969 7.9968C25.0101 7.9968 7.99695 25.01 7.99695 45.9968C7.99695 66.9836 25.0101 83.9968 45.9969 83.9968Z"/></mask><path fill-rule="evenodd" clip-rule="evenodd" d="M46 92C71.405 92 91.9999 71.4051 91.9999 46C91.9999 20.5949 71.405 0 46 0C20.5949 0 0 20.5949 0 46C0 71.4051 20.5949 92 46 92ZM45.9969 83.9968C66.9837 83.9968 83.9969 66.9836 83.9969 45.9968C83.9969 25.01 66.9837 7.9968 45.9969 7.9968C25.0101 7.9968 7.99695 25.01 7.99695 45.9968C7.99695 66.9836 25.0101 83.9968 45.9969 83.9968Z" fill="#5EBC57"/><path d="M90.4999 46C90.4999 70.5767 70.5766 90.5 46 90.5V93.5C72.2335 93.5 93.4999 72.2335 93.4999 46H90.4999ZM46 1.5C70.5766 1.5 90.4999 21.4233 90.4999 46H93.4999C93.4999 19.7665 72.2335 -1.5 46 -1.5V1.5ZM1.5 46C1.5 21.4233 21.4233 1.5 46 1.5V-1.5C19.7665 -1.5 -1.5 19.7665 -1.5 46H1.5ZM46 90.5C21.4233 90.5 1.5 70.5767 1.5 46H-1.5C-1.5 72.2335 19.7665 93.5 46 93.5V90.5ZM82.4969 45.9968C82.4969 66.1552 66.1553 82.4968 45.9969 82.4968V85.4968C67.8121 85.4968 85.4969 67.812 85.4969 45.9968H82.4969ZM45.9969 9.4968C66.1553 9.4968 82.4969 25.8384 82.4969 45.9968H85.4969C85.4969 24.1815 67.8121 6.4968 45.9969 6.4968V9.4968ZM9.49695 45.9968C9.49695 25.8384 25.8385 9.4968 45.9969 9.4968V6.4968C24.1817 6.4968 6.49695 24.1815 6.49695 45.9968H9.49695ZM45.9969 82.4968C25.8385 82.4968 9.49695 66.1552 9.49695 45.9968H6.49695C6.49695 67.812 24.1817 85.4968 45.9969 85.4968V82.4968Z" fill="#151417" mask="url(#path-1-inside-1_2584_62264)"/><path d="M34.9427 49.4606C34.779 48.642 34.1036 47.5778 32.3436 47.5778C30.9724 47.5778 29.8162 48.5602 29.8162 49.8495C29.8162 50.9443 30.5631 51.6913 31.7194 51.9267L32.7324 52.1313C33.2952 52.2439 33.6124 52.5713 33.6124 52.9909C33.6124 53.5025 33.1929 53.8811 32.4357 53.8811C31.4124 53.8811 30.9111 53.2364 30.8497 52.5202L29.5399 52.8681C29.6524 53.9016 30.5018 55.1397 32.4255 55.1397C34.1138 55.1397 35.045 54.0141 35.045 52.8988C35.045 51.8755 34.339 51.016 33.019 50.7602L32.0059 50.5657C31.4738 50.4634 31.218 50.1462 31.218 49.7471C31.218 49.2662 31.6683 48.8262 32.3538 48.8262C33.2748 48.8262 33.6022 49.4504 33.6738 49.8495L34.9427 49.4606ZM37.7395 54.9862V47.7313H36.307V54.9862H37.7395ZM44.0803 54.9862V53.6355H40.8468V47.7313H39.4347V54.9862H44.0803ZM46.9226 53.1239L45.0296 47.7313H43.4845L46.1654 54.9862H47.6184L50.3096 47.7313H48.8156L46.9226 53.1239ZM55.8193 54.9862V53.656H52.6882V51.9778H55.5226V50.7192H52.6882V49.0616H55.8193V47.7313H51.2761V54.9862H55.8193ZM60.7832 54.9862H62.359L60.8036 52.0188C61.7553 51.7425 62.3487 50.975 62.3487 49.962C62.3487 48.7034 61.4483 47.7313 60.0362 47.7313H57.2018V54.9862H58.6241V52.1927H59.3608L60.7832 54.9862ZM58.6241 50.975V48.9592H59.7701C60.4864 48.9592 60.906 49.3583 60.906 49.9723C60.906 50.5657 60.4864 50.975 59.7701 50.975H58.6241ZM32.7598 64.9862V57.7313H31.5933L28.8817 63.8402L26.1905 57.7313H25.0138V64.9862H25.8733V59.082L28.4826 64.9862H29.2705L31.9003 59.082V64.9862H32.7598ZM39.1155 64.9862V64.1983H35.6262V61.7527H38.7983V60.9648H35.6262V58.5192H39.1155V57.7313H34.7667V64.9862H39.1155ZM48.4284 64.9862V57.7313H47.2619L44.5503 63.8402L41.8591 57.7313H40.6824V64.9862H41.5419V59.082L44.1512 64.9862H44.9391L47.5689 59.082V64.9862H48.4284ZM50.4353 57.7313V64.9862H52.8809C54.2111 64.9862 55.1116 64.1676 55.1116 63.0216C55.1116 62.203 54.6102 61.4662 53.7916 61.2616C54.4362 61.0364 54.8865 60.4634 54.8865 59.6857C54.8865 58.5397 54.0781 57.7313 52.6967 57.7313H50.4353ZM51.2948 60.9546V58.4885H52.5841C53.4948 58.4885 54.0269 58.9695 54.0269 59.7267C54.0269 60.4429 53.4948 60.9546 52.6967 60.9546H51.2948ZM51.2948 64.229V61.6913H52.8502C53.7302 61.6913 54.252 62.2132 54.252 62.9704C54.252 63.7378 53.6585 64.229 52.7785 64.229H51.2948ZM61.0596 64.9862V64.1983H57.5703V61.7527H60.7424V60.9648H57.5703V58.5192H61.0596V57.7313H56.7107V64.9862H61.0596ZM66.4432 64.9862H67.446L65.686 61.8857C66.7808 61.7118 67.4562 60.9034 67.4562 59.8495C67.4562 58.6727 66.6069 57.7313 65.2664 57.7313H62.6264V64.9862H63.486V61.9471H64.7446L66.4432 64.9862ZM63.486 61.1797V58.4988H65.1334C66.0134 58.4988 66.5967 59.0309 66.5967 59.8495C66.5967 60.6578 66.0134 61.1797 65.1334 61.1797H63.486Z" fill="#151417"/><g clip-path="url(#clip0_2584_62264)"><path d="M26.5203 29.5327H22.6888V39.0643H26.5203V29.5327Z" fill="#5EBC57"/><path d="M36.6007 34.7829H36.2982C34.7128 34.7829 33.6077 34.8845 32.9848 35.0884C32.3606 35.2922 32.0485 35.6405 32.0485 36.1338C32.0485 36.4859 32.2077 36.7498 32.5262 36.9255C32.8447 37.1013 33.3224 37.1895 33.9594 37.1895C34.8106 37.1895 35.4636 37.0009 35.9183 36.6246C36.373 36.2482 36.6007 35.7056 36.6007 34.9957V34.7829V34.7829ZM36.6979 37.6317C36.2816 38.1672 35.6747 38.5761 34.8752 38.8579C34.0765 39.141 33.128 39.2829 32.0306 39.2829C30.763 39.2829 29.7833 39.0305 29.0919 38.525C28.3999 38.0189 28.054 37.3045 28.054 36.3805C28.054 35.8047 28.187 35.2871 28.453 34.8283C28.7191 34.3688 29.1054 33.9944 29.6119 33.7017C30.0141 33.4608 30.5776 33.2889 31.3015 33.1866C32.0248 33.0844 33.169 33.0326 34.7339 33.0326H36.6007C36.6007 32.9962 36.6039 32.9483 36.6103 32.8908C36.6167 32.8326 36.6199 32.7911 36.6199 32.7668C36.6199 32.253 36.4581 31.8619 36.1364 31.5929C35.8141 31.3232 35.3459 31.1891 34.7339 31.1891C34.0355 31.1891 33.5175 31.2779 33.1792 31.4549C32.8402 31.6313 32.6381 31.9175 32.5729 32.3137H28.7088C28.8316 31.2792 29.3874 30.5155 30.3761 30.0228C31.3648 29.5289 32.8383 29.2822 34.7966 29.2822C36.6832 29.2822 38.0723 29.5781 38.9638 30.1685C39.8547 30.7596 40.301 31.6766 40.301 32.9195V37.7914C40.301 38.0624 40.3158 38.2975 40.3445 38.4988C40.374 38.7001 40.4238 38.888 40.4955 39.0637H36.9403C36.8565 38.888 36.7951 38.6963 36.7561 38.4892C36.7177 38.2822 36.6979 38.056 36.6979 37.8106V37.6317Z" fill="#5EBC57"/><path d="M27.3959 25.6995C27.3959 27.2006 26.12 28.4179 24.5474 28.4179C22.9735 28.4179 21.6976 27.2006 21.6976 25.6995C21.6976 24.1978 22.9735 22.9805 24.5474 22.9805C26.12 22.9805 27.3959 24.1978 27.3959 25.6995Z" fill="#5EBC57"/><path d="M63.4049 37.3505C64.2293 37.3505 64.8874 37.093 65.3798 36.5785C65.8729 36.0635 66.1198 35.3759 66.1198 34.5132C66.1198 33.5394 65.8761 32.7847 65.3901 32.2486C64.9034 31.7124 64.2223 31.444 63.3461 31.444C62.4898 31.444 61.8195 31.7009 61.336 32.216C60.8532 32.7304 60.6121 33.4499 60.6121 34.3739C60.6121 35.3472 60.85 36.0871 61.3271 36.592C61.8035 37.0974 62.4962 37.3505 63.4049 37.3505ZM56.8196 42.6313V31.63C56.8196 31.3028 56.8062 30.9609 56.78 30.6031C56.7538 30.2459 56.7148 29.8695 56.663 29.4746H60.5334C60.5724 29.7212 60.6019 29.9679 60.6217 30.2146C60.6409 30.4612 60.6505 30.7079 60.6505 30.9539V31.2491C61.1806 30.5903 61.8157 30.088 62.5563 29.743C63.2969 29.3979 64.1135 29.2247 65.0057 29.2247C66.5898 29.2247 67.826 29.6733 68.715 30.5692C69.6039 31.4658 70.0491 32.7144 70.0491 34.3151C70.0491 35.8354 69.5899 37.0399 68.6715 37.9262C67.7538 38.8126 66.506 39.256 64.9277 39.256C64.0745 39.256 63.2924 39.1225 62.5806 38.856C61.8694 38.5889 61.226 38.1882 60.6505 37.654V42.6313H56.8196V42.6313Z" fill="#5EBC57"/><path d="M48.739 37.378C49.5634 37.378 50.2221 37.1198 50.7146 36.6054C51.207 36.0903 51.4539 35.4028 51.4539 34.5407C51.4539 33.5662 51.2108 32.8115 50.7242 32.2754C50.2381 31.7393 49.557 31.4709 48.6809 31.4709C47.8245 31.4709 47.1543 31.7284 46.6708 32.2428C46.1879 32.7579 45.9462 33.4768 45.9462 34.4008C45.9462 35.3746 46.1841 36.114 46.6612 36.6195C47.1377 37.1249 47.8303 37.378 48.739 37.378ZM42.1538 42.6588V31.6568C42.1538 31.3303 42.1403 30.9884 42.1147 30.6306C42.0885 30.2733 42.0495 29.897 41.9971 29.502H45.8682C45.9065 29.7487 45.9366 29.9954 45.9564 30.242C45.9756 30.4887 45.9852 30.7354 45.9852 30.9814V31.2766C46.5154 30.6178 47.1504 30.1155 47.891 29.7698C48.6316 29.4254 49.4483 29.2522 50.3398 29.2522C51.9239 29.2522 53.1602 29.7008 54.0497 30.596C54.9393 31.4932 55.3838 32.7412 55.3838 34.342C55.3838 35.8629 54.924 37.0668 54.0063 37.9537C53.0885 38.84 51.8408 39.2835 50.2624 39.2835C49.4093 39.2835 48.6265 39.15 47.9153 38.8835C47.2042 38.6164 46.5602 38.2157 45.9852 37.6815V42.6588H42.1538Z" fill="#5EBC57"/></g><path d="M19.1395 44.3887C19.907 44.3887 55.2732 44.3887 72.8605 44.3887" stroke="#5EBC57" stroke-width="0.639535"/><defs><clipPath id="clip0_2584_62264"><rect width="48.3514" height="19.6773" fill="white" transform="translate(21.6976 22.9815)"/></clipPath></defs></svg>